<?xml version="1.0" encoding="UTF-8"?>
<svg id="Calque_1" data-name="Calque 1" xmlns="http://www.w3.org/2000/svg" viewBox="0 0 1190.55 362">
  <defs>
    <style>
      .cls-1 {
        fill: maroon;
        opacity: .57;
      }

      .cls-2 {
        fill: red;
      }
    </style>
  </defs>
  <g>
    <path class="cls-2" d="M60.68,269.7c-6.56,0-10-3.44-10-10V56.68c0-6.56,3.44-10,10-10h69.65c33.11,0,54.97,21.24,54.97,53.1,0,16.55-7.5,30.92-19.05,40.61,20.93,11.87,35.3,34.05,35.3,59.97,0,41.54-28.42,69.34-71.21,69.34H60.68Zm69.65-138.68c18.74,0,31.23-12.49,31.23-31.23s-12.49-31.23-31.23-31.23h-56.85v62.47h56.85Zm0,116.82c28.42,0,47.48-19.05,47.48-47.48s-19.05-47.48-47.48-47.48h-56.85v94.95h56.85Z"/>
    <path class="cls-2" d="M226.55,201.3c0-39.04,32.17-71.21,71.21-71.21,20.93,0,39.36,9.68,51.85,24.68v-12.49c0-6.56,3.44-10,10-10h.94c6.56,0,10,3.44,10,10v118.07c0,6.56-3.44,10-10,10h-.94c-6.56,0-10-3.43-10-10v-12.49c-12.49,15.31-30.92,25.3-51.85,25.3-39.04,0-71.21-33.42-71.21-71.84Zm121.82,0c0-27.8-24.05-50.6-51.22-50.6s-48.73,22.8-48.73,50.6,20.93,51.22,48.73,51.22,51.22-24.05,51.22-51.22Z"/>
    <path class="cls-2" d="M560.75,201.3c0-39.04,32.17-71.21,71.21-71.21,20.93,0,39.36,9.68,51.85,24.68v-12.49c0-6.56,3.44-10,10-10h.94c6.56,0,10,3.44,10,10v118.07c0,6.56-3.44,10-10,10h-.94c-6.56,0-10-3.43-10-10v-12.49c-12.49,15.31-30.92,25.3-51.85,25.3-39.04,0-71.21-33.42-71.21-71.84Zm121.82,0c0-27.8-24.05-50.6-51.22-50.6s-48.73,22.8-48.73,50.6,20.93,51.22,48.73,51.22,51.22-24.05,51.22-51.22Z"/>
    <path class="cls-2" d="M769.41,151.01c9.06-10.31,21.55-17.8,36.23-19.99,6.56-1.25,10.31,2.81,10.31,9.37v.62c0,6.56-3.44,9.37-9.68,10.62-20.3,3.12-36.86,17.81-36.86,42.17v65.91c0,6.56-3.44,10-10,10h-.94c-6.56,0-10-3.44-10-10v-117.44c0-6.56,3.44-10,10-10h.94c6.56,0,10,3.44,10,10v8.75Z"/>
    <path class="cls-2" d="M833.13,201.3c0-39.04,32.17-71.21,71.21-71.21s71.21,32.17,71.21,71.21-32.17,71.84-71.21,71.84-71.21-33.42-71.21-71.84Zm21.86,0c0,27.18,21.55,51.22,49.35,51.22s49.35-24.05,49.35-51.22-21.55-50.6-49.35-50.6-49.35,22.8-49.35,50.6Z"/>
    <path class="cls-2" d="M997.43,201.3c0-39.04,32.17-71.21,71.21-71.21s71.21,32.17,71.21,71.21-32.17,71.84-71.21,71.84-71.21-33.42-71.21-71.84Zm21.86,0c0,27.18,21.55,51.22,49.35,51.22s49.35-24.05,49.35-51.22-21.55-50.6-49.35-50.6-49.35,22.8-49.35,50.6Z"/>
  </g>
  <g>
    <path class="cls-1" d="M366.88,306.66c1.46-.61,2.52-1.1,3.71-1.55,27.71-10.44,55.45-20.87,83.15-31.31,1.87-.7,3.53-1.27,6.57-.95,25.76,2.73,51.56,5.43,77.34,8.15,.7,.07,1.3,.25,2.47,.48-1.44,.65-2.56,1.26-3.95,1.77-27.18,10.15-54.45,20.27-81.53,30.45-3.71,1.39-6.9,1.74-12.02,1.17-23.57-2.61-47.31-5.04-70.99-7.54-1.45-.15-2.82-.4-4.75-.67Z"/>
    <path class="cls-2" d="M366.92,306.28c1.37-2.51,2.34-4.49,3.48-6.36,40.85-66.94,81.88-133.77,122.37-200.93,5.03-8.35,9.71-11.53,19.76-9.93,20.12,3.19,40.5,4.66,60.78,6.9,2.82,.31,5.61,.92,9.23,1.52-1.81,3.24-3.23,5.99-4.84,8.62-26.53,43.52-53.11,87.02-79.63,130.55-15.3,25.11-30.54,50.26-45.72,75.45-1.52,2.52-3.1,3.49-6.16,3.15-24.77-2.77-49.56-5.35-74.34-8.02-1.43-.15-2.84-.54-4.93-.95Z"/>
    <path class="cls-2" d="M409.38,121.81c1.46-.61,2.52-1.1,3.71-1.55,27.71-10.44,55.45-20.87,83.15-31.31,1.87-.7,3.53-1.27,6.57-.95,25.76,2.73,51.56,5.43,77.34,8.15,.7,.07,1.3,.25,2.47,.48-1.44,.65-2.56,1.26-3.95,1.77-27.18,10.15-54.45,20.27-81.53,30.45-3.71,1.39-6.9,1.74-12.02,1.17-23.57-2.61-47.31-5.04-70.99-7.54-1.45-.15-2.82-.4-4.75-.67Z"/>
  </g>
</svg>