<?xml version="1.0" encoding="UTF-8"?>
<svg id="Calque_1" data-name="Calque 1" xmlns="http://www.w3.org/2000/svg" viewBox="0 0 610.25 666.08">
  <defs>
    <style>
      .cls-1 {
        fill: maroon;
        opacity: .57;
      }

      .cls-2 {
        fill: red;
      }
    </style>
  </defs>
  <path class="cls-1" d="M19.61,607.96c3.82-1.6,6.62-2.89,9.75-4.06,72.8-27.42,145.66-54.82,218.43-82.25,4.9-1.85,9.27-3.34,17.25-2.5,67.67,7.18,135.44,14.26,203.15,21.4,1.84,.19,3.41,.66,6.48,1.27-3.78,1.71-6.73,3.3-10.37,4.66-71.4,26.66-143.02,53.24-214.16,79.98-9.74,3.66-18.12,4.57-31.57,3.08-61.91-6.85-124.29-13.23-186.47-19.81-3.82-.4-7.41-1.04-12.48-1.77Z"/>
  <path class="cls-2" d="M19.72,606.94c3.6-6.6,6.14-11.78,9.14-16.69C136.16,414.4,243.95,238.85,350.29,62.43c13.22-21.94,25.51-30.28,51.91-26.09,52.84,8.38,106.4,12.25,159.65,18.11,7.41,.82,14.74,2.41,24.26,4-4.76,8.51-8.5,15.73-12.72,22.65-69.7,114.33-139.52,228.59-209.18,342.94-40.19,65.97-80.22,132.03-120.09,198.19-3.98,6.61-8.15,9.18-16.18,8.28-65.06-7.28-130.18-14.06-195.27-21.07-3.76-.41-7.46-1.42-12.95-2.5Z"/>
  <path class="cls-2" d="M131.28,122.37c3.82-1.6,6.62-2.89,9.75-4.06,72.8-27.42,145.66-54.82,218.43-82.25,4.9-1.85,9.27-3.34,17.25-2.5,67.67,7.18,135.44,14.26,203.15,21.4,1.84,.19,3.41,.66,6.48,1.27-3.78,1.71-6.73,3.3-10.37,4.66-71.4,26.66-143.02,53.24-214.16,79.98-9.74,3.66-18.12,4.57-31.57,3.08-61.91-6.85-124.29-13.23-186.47-19.81-3.82-.4-7.41-1.04-12.48-1.77Z"/>
</svg>